<?xml version="1.0" encoding="UTF-8"?>
<!DOCTYPE svg PUBLIC "-//W3C//DTD SVG 1.1//EN" "http://www.w3.org/Graphics/SVG/1.1/DTD/svg11.dtd">
<svg xmlns="http://www.w3.org/2000/svg" version="1.1" width="661px" height="747px" style="shape-rendering:geometricPrecision; text-rendering:geometricPrecision; image-rendering:optimizeQuality; fill-rule:evenodd; clip-rule:evenodd" xmlns:xlink="http://www.w3.org/1999/xlink">
<g><path style="opacity:1" fill="#fefffe" d="M -0.5,-0.5 C 219.833,-0.5 440.167,-0.5 660.5,-0.5C 660.5,-0.166667 660.5,0.166667 660.5,0.5C 440.5,0.5 220.5,0.5 0.5,0.5C 0.5,249.167 0.5,497.833 0.5,746.5C 0.166667,746.5 -0.166667,746.5 -0.5,746.5C -0.5,497.5 -0.5,248.5 -0.5,-0.5 Z"/></g>
<g><path style="opacity:1" fill="#4ca383" d="M 660.5,0.5 C 660.5,249.167 660.5,497.833 660.5,746.5C 440.5,746.5 220.5,746.5 0.5,746.5C 0.5,497.833 0.5,249.167 0.5,0.5C 220.5,0.5 440.5,0.5 660.5,0.5 Z"/></g>
<g><path style="opacity:1" fill="#f9fbf8" d="M 228.5,32.5 C 233.161,31.8321 235.161,33.8321 234.5,38.5C 234.171,41.2282 234.837,43.5615 236.5,45.5C 237.011,47.1947 237.678,48.8614 238.5,50.5C 239.107,50.3764 239.44,50.0431 239.5,49.5C 241.41,46.5475 242.41,43.2142 242.5,39.5C 242.5,39.1667 242.5,38.8333 242.5,38.5C 244.074,36.8984 244.741,34.8984 244.5,32.5C 246.167,32.5 247.833,32.5 249.5,32.5C 249.923,37.5401 251.256,42.2068 253.5,46.5C 254.024,48.3057 254.691,49.9724 255.5,51.5C 257.781,47.4376 259.114,42.4376 259.5,36.5C 259.5,35.1667 259.5,33.8333 259.5,32.5C 261.167,32.5 262.833,32.5 264.5,32.5C 264.5,33.8333 264.5,35.1667 264.5,36.5C 264.5,37.1667 264.5,37.8333 264.5,38.5C 263.883,38.6107 263.383,38.944 263,39.5C 261.006,46.4759 259.173,53.4759 257.5,60.5C 255.833,60.5 254.167,60.5 252.5,60.5C 252.741,58.1016 252.074,56.1016 250.5,54.5C 250.5,54.1667 250.5,53.8333 250.5,53.5C 250.105,48.9172 248.938,44.5838 247,40.5C 246.536,41.0944 246.369,41.7611 246.5,42.5C 245.883,42.6107 245.383,42.944 245,43.5C 243.641,47.4052 242.808,51.4052 242.5,55.5C 242.714,57.1439 242.38,58.6439 241.5,60C 239.527,60.4955 237.527,60.6621 235.5,60.5C 235.741,58.1016 235.074,56.1016 233.5,54.5C 233.829,51.7718 233.163,49.4385 231.5,47.5C 231.5,47.1667 231.5,46.8333 231.5,46.5C 230.815,41.7606 229.815,37.0939 228.5,32.5 Z"/></g>
<g><path style="opacity:1" fill="#f6f8f1" d="M 284.5,57.5 C 284.771,55.6203 284.104,54.287 282.5,53.5C 279.102,53.1796 275.768,53.513 272.5,54.5C 271.781,59.7107 269.114,61.3773 264.5,59.5C 266.834,57.8243 267.834,55.491 267.5,52.5C 267.5,52.1667 267.5,51.8333 267.5,51.5C 269.834,49.8243 270.834,47.491 270.5,44.5C 271.16,40.6873 272.326,37.0207 274,33.5C 276.381,32.565 278.881,32.2317 281.5,32.5C 284.532,41.7628 287.866,50.9294 291.5,60C 289.527,60.4955 287.527,60.6621 285.5,60.5C 285.737,59.209 285.404,58.209 284.5,57.5 Z"/></g>
<g><path style="opacity:1" fill="#f0f3ee" d="M 294.5,32.5 C 296.5,32.5 298.5,32.5 300.5,32.5C 300.5,40.5 300.5,48.5 300.5,56.5C 303.833,56.5 307.167,56.5 310.5,56.5C 310.5,57.8333 310.5,59.1667 310.5,60.5C 305.167,60.5 299.833,60.5 294.5,60.5C 294.5,51.1667 294.5,41.8333 294.5,32.5 Z"/></g>
<g><path style="opacity:1" fill="#fafbf6" d="M 343.5,37.5 C 343.492,40.5448 343.159,43.5448 342.5,46.5C 339.207,49.598 335.207,50.9313 330.5,50.5C 330.5,53.8333 330.5,57.1667 330.5,60.5C 328.833,60.5 327.167,60.5 325.5,60.5C 325.5,51.1667 325.5,41.8333 325.5,32.5C 331.434,31.8887 337.1,32.722 342.5,35C 343.252,35.6708 343.586,36.5041 343.5,37.5 Z"/></g>
<g><path style="opacity:1" fill="#f5fbf9" d="M 352.5,32.5 C 352.334,38.8421 352.5,45.1754 353,51.5C 353.278,52.4158 353.778,53.0825 354.5,53.5C 357.706,57.346 361.04,57.346 364.5,53.5C 365.497,46.5316 365.83,39.5316 365.5,32.5C 367.167,32.5 368.833,32.5 370.5,32.5C 370.666,39.8409 370.5,47.1742 370,54.5C 367.581,59.0394 363.748,61.0394 358.5,60.5C 354.325,60.999 351.325,59.3323 349.5,55.5C 348.503,47.8622 348.169,40.1955 348.5,32.5C 349.833,32.5 351.167,32.5 352.5,32.5 Z"/></g>
<g><path style="opacity:1" fill="#f7ebc8" d="M 352.5,32.5 C 353.275,39.3533 353.942,46.3533 354.5,53.5C 353.778,53.0825 353.278,52.4158 353,51.5C 352.5,45.1754 352.334,38.8421 352.5,32.5 Z"/></g>
<g><path style="opacity:1" fill="#f0f3ee" d="M 376.5,32.5 C 378.5,32.5 380.5,32.5 382.5,32.5C 382.5,40.5 382.5,48.5 382.5,56.5C 385.833,56.5 389.167,56.5 392.5,56.5C 392.5,57.8333 392.5,59.1667 392.5,60.5C 387.167,60.5 381.833,60.5 376.5,60.5C 376.5,51.1667 376.5,41.8333 376.5,32.5 Z"/></g>
<g><path style="opacity:1" fill="#f4f8f2" d="M 395.5,43.5 C 395.401,40.7628 395.735,38.0961 396.5,35.5C 401.052,32.4075 406.052,31.7408 411.5,33.5C 412.833,35.1667 412.833,36.8333 411.5,38.5C 408.711,36.7018 405.711,36.2018 402.5,37C 399.833,39 399.833,41 402.5,43C 405.912,44.4545 409.079,46.2879 412,48.5C 415.032,54.2134 413.532,58.0468 407.5,60C 403.442,60.7666 399.442,60.5999 395.5,59.5C 394.167,57.8333 394.167,56.1667 395.5,54.5C 399.015,56.6217 402.681,56.955 406.5,55.5C 407.833,53.8333 407.833,52.1667 406.5,50.5C 402.223,48.8769 398.557,46.5436 395.5,43.5 Z"/></g>
<g><path style="opacity:1" fill="#f4f9f3" d="M 417.5,32.5 C 422.833,32.5 428.167,32.5 433.5,32.5C 433.5,33.8333 433.5,35.1667 433.5,36.5C 430.167,36.5 426.833,36.5 423.5,36.5C 423.5,39.1667 423.5,41.8333 423.5,44.5C 426.5,44.5 429.5,44.5 432.5,44.5C 432.5,45.8333 432.5,47.1667 432.5,48.5C 429.5,48.5 426.5,48.5 423.5,48.5C 423.5,51.1667 423.5,53.8333 423.5,56.5C 427.167,56.5 430.833,56.5 434.5,56.5C 434.5,57.8333 434.5,59.1667 434.5,60.5C 428.833,60.5 423.167,60.5 417.5,60.5C 417.5,51.1667 417.5,41.8333 417.5,32.5 Z"/></g>
<g><path style="opacity:1" fill="#87d6e7" d="M 244.5,32.5 C 244.741,34.8984 244.074,36.8984 242.5,38.5C 242.595,36.2143 243.262,34.2143 244.5,32.5 Z"/></g>
<g><path style="opacity:1" fill="#e7dfb3" d="M 249.5,32.5 C 251.434,36.8885 252.767,41.5551 253.5,46.5C 251.256,42.2068 249.923,37.5401 249.5,32.5 Z"/></g>
<g><path style="opacity:1" fill="#d8cf9b" d="M 264.5,32.5 C 265.239,32.369 265.906,32.5357 266.5,33C 265.915,34.3024 265.249,35.469 264.5,36.5C 264.5,35.1667 264.5,33.8333 264.5,32.5 Z"/></g>
<g><path style="opacity:1" fill="#80d2e4" d="M 228.5,32.5 C 229.815,37.0939 230.815,41.7606 231.5,46.5C 229.878,42.7159 228.545,38.7159 227.5,34.5C 227.543,33.5836 227.876,32.9169 228.5,32.5 Z"/></g>
<g><path style="opacity:1" fill="#4ca384" d="M 337.5,37.5 C 338.833,39.8333 338.833,42.1667 337.5,44.5C 335.485,45.9238 333.152,46.5905 330.5,46.5C 330.5,43.1667 330.5,39.8333 330.5,36.5C 332.903,36.448 335.236,36.7814 337.5,37.5 Z"/></g>
<g><path style="opacity:1" fill="#93dae9" d="M 337.5,37.5 C 338.947,38.1342 339.613,39.3009 339.5,41C 339.613,42.6991 338.947,43.8658 337.5,44.5C 338.833,42.1667 338.833,39.8333 337.5,37.5 Z"/></g>
<g><path style="opacity:1" fill="#dad390" d="M 343.5,37.5 C 344.152,38.4486 344.486,39.6153 344.5,41C 344.607,43.2206 343.94,45.0539 342.5,46.5C 343.159,43.5448 343.492,40.5448 343.5,37.5 Z"/></g>
<g><path style="opacity:1" fill="#77d3e3" d="M 396.5,35.5 C 395.735,38.0961 395.401,40.7628 395.5,43.5C 394.848,42.5514 394.514,41.3847 394.5,40C 394.307,37.9919 394.974,36.4919 396.5,35.5 Z"/></g>
<g><path style="opacity:1" fill="#88d5e7" d="M 259.5,36.5 C 259.114,42.4376 257.781,47.4376 255.5,51.5C 256.389,46.2715 257.722,41.2715 259.5,36.5 Z"/></g>
<g><path style="opacity:1" fill="#e3daaf" d="M 264.5,38.5 C 262.765,46.1336 260.432,53.467 257.5,60.5C 259.173,53.4759 261.006,46.4759 263,39.5C 263.383,38.944 263.883,38.6107 264.5,38.5 Z"/></g>
<g><path style="opacity:1" fill="#5aac97" d="M 277.5,37.5 C 279.74,41.0983 281.074,45.0983 281.5,49.5C 279.167,49.5 276.833,49.5 274.5,49.5C 275.5,45.5 276.5,41.5 277.5,37.5 Z"/></g>
<g><path style="opacity:1" fill="#e7ddaf" d="M 234.5,38.5 C 235.612,40.5994 236.279,42.9327 236.5,45.5C 234.837,43.5615 234.171,41.2282 234.5,38.5 Z"/></g>
<g><path style="opacity:1" fill="#83d3e4" d="M 242.5,39.5 C 242.41,43.2142 241.41,46.5475 239.5,49.5C 239.899,45.8835 240.899,42.5502 242.5,39.5 Z"/></g>
<g><path style="opacity:1" fill="#8fd7e9" d="M 250.5,53.5 C 249.013,49.8835 247.68,46.2169 246.5,42.5C 246.369,41.7611 246.536,41.0944 247,40.5C 248.938,44.5838 250.105,48.9172 250.5,53.5 Z"/></g>
<g><path style="opacity:1" fill="#e1d7ae" d="M 246.5,42.5 C 245.537,47.0499 244.203,51.3832 242.5,55.5C 242.808,51.4052 243.641,47.4052 245,43.5C 245.383,42.944 245.883,42.6107 246.5,42.5 Z"/></g>
<g><path style="opacity:1" fill="#a1e0ec" d="M 270.5,44.5 C 270.834,47.491 269.834,49.8243 267.5,51.5C 267.935,48.8427 268.935,46.5093 270.5,44.5 Z"/></g>
<g><path style="opacity:1" fill="#83d3e4" d="M 231.5,47.5 C 233.163,49.4385 233.829,51.7718 233.5,54.5C 232.388,52.4006 231.721,50.0673 231.5,47.5 Z"/></g>
<g><path style="opacity:1" fill="#a1e0ec" d="M 267.5,52.5 C 267.834,55.491 266.834,57.8243 264.5,59.5C 264.935,56.8427 265.935,54.5093 267.5,52.5 Z"/></g>
<g><path style="opacity:1" fill="#73cada" d="M 282.5,53.5 C 284.104,54.287 284.771,55.6203 284.5,57.5C 283.326,56.4863 282.66,55.153 282.5,53.5 Z"/></g>
<g><path style="opacity:1" fill="#8ddbed" d="M 233.5,54.5 C 235.074,56.1016 235.741,58.1016 235.5,60.5C 234.262,58.7857 233.595,56.7857 233.5,54.5 Z"/></g>
<g><path style="opacity:1" fill="#89d9ea" d="M 250.5,54.5 C 252.074,56.1016 252.741,58.1016 252.5,60.5C 251.262,58.7857 250.595,56.7857 250.5,54.5 Z"/></g>
<g><path style="opacity:1" fill="#eef5f2" d="M 313.5,229.5 C 331.801,230.109 336.134,238.109 326.5,253.5C 305.876,254.251 301.543,246.251 313.5,229.5 Z"/></g>
<g><path style="opacity:1" fill="#e8f2ee" d="M 340.5,244.5 C 351.285,246.975 352.285,251.642 343.5,258.5C 338.118,254.777 337.118,250.11 340.5,244.5 Z"/></g>
<g><path style="opacity:1" fill="#eff6f3" d="M 310.5,261.5 C 322.162,261.325 325.495,266.492 320.5,277C 306.681,278.367 303.347,273.2 310.5,261.5 Z"/></g>
<g><path style="opacity:1" fill="#eaf3f0" d="M 332.5,263.5 C 347.888,262.023 352.555,268.19 346.5,282C 330.388,284.625 325.721,278.458 332.5,263.5 Z"/></g>
<g><path style="opacity:1" fill="#fbfcfc" d="M 305.5,290.5 C 314.506,290.334 323.506,290.5 332.5,291C 340.797,292.272 349.13,293.106 357.5,293.5C 358.333,313.497 359.166,333.497 360,353.5C 374.456,397.869 389.123,442.203 404,486.5C 412.375,523.557 397.542,543.391 359.5,546C 341.167,546.667 322.833,546.667 304.5,546C 264.845,545.024 249.012,525.19 257,486.5C 272.261,442.383 286.928,398.049 301,353.5C 301.712,332.433 303.212,311.433 305.5,290.5 Z"/></g>
<g><path style="opacity:1" fill="#add4c6" d="M 185.5,579.5 C 185.5,587.167 185.5,594.833 185.5,602.5C 188.833,602.5 192.167,602.5 195.5,602.5C 192.038,603.482 188.371,603.815 184.5,603.5C 184.174,595.316 184.508,587.316 185.5,579.5 Z"/></g>
<g><path style="opacity:1" fill="#d8e9e3" d="M 185.5,579.5 C 189.936,579.21 194.27,579.71 198.5,581C 195.066,581.036 192.733,582.536 191.5,585.5C 191.608,586.442 191.941,587.275 192.5,588C 194.5,589 196.5,590 198.5,591C 188.747,596.261 189.414,599.761 200.5,601.5C 198.955,602.452 197.288,602.785 195.5,602.5C 192.167,602.5 188.833,602.5 185.5,602.5C 185.5,594.833 185.5,587.167 185.5,579.5 Z"/></g>
<g><path style="opacity:1" fill="#daeae4" d="M 213.5,579.5 C 218.742,579.023 223.742,579.856 228.5,582C 224.877,583.156 221.211,584.156 217.5,585C 221.207,585.936 224.374,587.769 227,590.5C 227.579,594.203 227.412,597.869 226.5,601.5C 221.01,603.407 216.01,602.574 211.5,599C 229.363,598.645 230.029,595.145 213.5,588.5C 212.259,585.463 212.259,582.463 213.5,579.5 Z"/></g>
<g><path style="opacity:1" fill="#d6e7e0" d="M 242.5,579.5 C 246.182,579.335 249.848,579.501 253.5,580C 253.957,580.414 254.291,580.914 254.5,581.5C 251.279,587.273 248.613,593.273 246.5,599.5C 244.741,593.484 242.074,587.984 238.5,583C 239.347,581.229 240.68,580.063 242.5,579.5 Z"/></g>
<g><path style="opacity:1" fill="#cfe4dc" d="M 305.5,579.5 C 311.387,578.673 316.721,579.84 321.5,583C 317.167,583.333 312.833,583.667 308.5,584C 303.68,593.443 306.347,597.11 316.5,595C 311.916,593.328 311.249,591.328 314.5,589C 317.482,588.502 320.482,588.335 323.5,588.5C 325.195,599.638 320.529,604.138 309.5,602C 302.159,595.426 300.826,587.926 305.5,579.5 Z"/></g>
<g><path style="opacity:1" fill="#eef5f2" d="M 376.5,579.5 C 380.884,579.174 385.217,579.508 389.5,580.5C 386.568,582.654 383.234,584.154 379.5,585C 390.033,589.107 390.033,593.107 379.5,597C 383.161,597.829 386.495,599.329 389.5,601.5C 385.217,602.492 380.884,602.826 376.5,602.5C 376.5,594.833 376.5,587.167 376.5,579.5 Z"/></g>
<g><path style="opacity:1" fill="#e1eee9" d="M 446.5,579.5 C 450.961,579.79 453.795,582.123 455,586.5C 457.247,591.637 457.914,596.97 457,602.5C 452.383,595.848 447.717,595.848 443,602.5C 444.089,594.877 445.255,587.21 446.5,579.5 Z"/></g>
<g><path style="opacity:1" fill="#e6f1ed" d="M 470.5,579.5 C 477.984,578.758 478.984,580.591 473.5,585C 476.33,588.359 478.497,587.859 480,583.5C 489.183,595.802 486.016,602.136 470.5,602.5C 470.5,594.833 470.5,587.167 470.5,579.5 Z"/></g>
<g><path style="opacity:1" fill="#d7e9e2" d="M 496.5,579.5 C 501.742,579.023 506.742,579.856 511.5,582C 507.971,583.466 504.305,584.466 500.5,585C 509.892,586.7 512.725,591.867 509,600.5C 503.858,603.386 499.025,602.886 494.5,599C 498.848,598.535 503.181,598.035 507.5,597.5C 507.703,595.61 507.037,594.11 505.5,593C 502.006,591.421 498.673,589.587 495.5,587.5C 494.211,584.648 494.544,581.982 496.5,579.5 Z"/></g>
<g><path style="opacity:1" fill="#deece7" d="M 143.5,579.5 C 147.709,583.562 151.209,588.228 154,593.5C 157.07,583.27 160.904,582.937 165.5,592.5C 168,588.167 170.5,583.833 173,579.5C 174.022,580.354 174.855,581.354 175.5,582.5C 172.861,589.112 169.694,595.446 166,601.5C 161.12,591.925 156.953,592.258 153.5,602.5C 147.844,595.873 144.511,588.207 143.5,579.5 Z"/></g>
<g><path style="opacity:1" fill="#e0eee9" d="M 281.5,579.5 C 288.79,585.415 292.29,593.082 292,602.5C 287.145,595.928 282.478,595.928 278,602.5C 276.623,594.39 277.789,586.723 281.5,579.5 Z"/></g>
<g><path style="opacity:1" fill="#b8d7cb" d="M 334.5,580.5 C 337.091,581.254 338.924,582.921 340,585.5C 340.634,590.974 339.968,596.307 338,601.5C 335.025,594.838 333.859,587.838 334.5,580.5 Z"/></g>
<g><path style="opacity:1" fill="#f1f8f5" d="M 417.5,580.5 C 418.927,582.148 419.76,584.148 420,586.5C 420.499,591.155 420.666,595.821 420.5,600.5C 424.048,600.095 427.381,600.595 430.5,602C 426.179,602.499 421.846,602.666 417.5,602.5C 417.5,595.167 417.5,587.833 417.5,580.5 Z"/></g>
<g><path style="opacity:1" fill="#e6f1ed" d="M 352.5,580.5 C 354.011,582.476 354.844,584.809 355,587.5C 355.499,591.821 355.666,596.154 355.5,600.5C 358.898,600.18 362.232,600.513 365.5,601.5C 361.217,602.492 356.884,602.826 352.5,602.5C 352.5,595.167 352.5,587.833 352.5,580.5 Z"/></g>
<g><path style="opacity:1" fill="#66ae92" d="M 473.5,591.5 C 478.749,592.477 479.749,595.143 476.5,599.5C 474.016,597.464 473.016,594.798 473.5,591.5 Z"/></g>
</svg>
